# xmcd
#
# Track frame offsets:
#	150
#	15521
#	30691
#	35230
#	39502
#	53456
#	73111
#	85825
#	107003
#	133520
#	151861
#	168725
#	175308
#
# Disc length: 3063 seconds
#
# Revision: 1
# Processed by: cddbd v1.5.2PL0 Copyright (c) Steve Scherf et al.
# Submitted via: audiograbber 1.83.01
#
DISCID=a40bf50d
DTITLE=Roerhedds - Breed
DYEAR=2002
DGENRE=Metal
TTITLE0=Amreteat
TTITLE1=Kessel
TTITLE2=LA2
TTITLE3=Torso
TTITLE4=Maulbeerbaum
TTITLE5=Rocco
TTITLE6=Five Black Points
TTITLE7=Yaws Of Death
TTITLE8=Paverman
TTITLE9=Organic Blackhole
TTITLE10=Taiterma
TTITLE11=Buggle
TTITLE12=Lonely
EXTD=
EXTT0=
EXTT1=
EXTT2=
EXTT3=
EXTT4=
EXTT5=
EXTT6=
EXTT7=
EXTT8=
EXTT9=
EXTT10=
EXTT11=
EXTT12=
PLAYORDER=
